<svg xmlns="http://www.w3.org/2000/svg" viewBox="0 0 24 24" width="24px" height="24px">
  <path d="M12 0C5.4 0 0 5.4 0 12c0 5.3 3.4 9.8 8.2 11.4.6.1.8-.2.8-.6v-2.2c-3.3.7-4-1.6-4-1.6-.5-1.2-1.2-1.5-1.2-1.5-1-.7.1-.7.1-.7 1.1.1 1.7 1.1 1.7 1.1 1 .1.7 1.7.7 1.7-.8.1-1.6-.5-1.6-.5-.8-.5-.6-1.2-.6-1.2.5-.1 1.1.1 1.1.1.5.1.8.5.8.5.5.8 1.2.6 1.5.5.1-.4.2-.7.3-1-.7-.1-1.5-.4-2.1-.8-.6-.4-1.1-1-1.5-1.7-.4-.7-.6-1.5-.6-2.3 0-1.6.6-2.9 1.6-3.9-.2-.4-.7-1.1-.2-2.3 0 0 1.3-.4 4.2 1.6 1.2-.3 2.5-.5 3.8-.5s2.6.2 3.8.5c2.9-2 4.2-1.6 4.2-1.6.5 1.2 0 1.9-.2 2.3 1 1 1.6 2.3 1.6 3.9 0 .8-.2 1.6-.6 2.3-.4.7-.9 1.3-1.5 1.7-.6.4-1.4.7-2.1.8.1.3.2.6.3 1 .3.1 1 .3 1.5-.5.5-.1.8-.4.8-.5.5-.1 1.1-.3 1.1-.1 0 0 .2.7-.6 1.2-.8.5-1.6.6-1.6.5 0 0-.3-1.6.7-1.7 0 0 .6-1 1.7-1.1 0 0 1.1 0 .1.7 0 0-.7.3-1.2 1.5 0 0-.7 2.3-4 1.6v2.2c0 .4.2.7.8.6C20.6 21.8 24 17.3 24 12 24 5.4 18.6 0 12 0z"/>
</svg>